<?xml version="1.0" encoding="UTF-8" standalone="no"?>
<!DOCTYPE score-partwise PUBLIC "-//Recordare//DTD MusicXML 3.0 Partwise//EN" "http://www.musicxml.org/dtds/partwise.dtd">
<score-partwise version="3.0">
  <identification>
    <encoding>
      <software>MuseScore</software>
      <encoding-date>2017-04-13</encoding-date>
    </encoding>
  </identification>
  <defaults>
    <scaling>
      <millimeters>7</millimeters>
      <tenths>40</tenths>
    </scaling>
  </defaults>
  <part-list>
    <score-part id="P1">
      <part-name>Reflections</part-name>
      <score-instrument id="P1-C9">
        <instrument-name>channel 9</instrument-name>
      </score-instrument>
      <midi-instrument id="P1-C9">
        <midi-channel>9</midi-channel>
      </midi-instrument>
    </score-part>
  </part-list>
  <part id="P1">
    <measure number="1" width="540">
      <attributes>
        <divisions>16</divisions>
        <key>
          <fifths>0</fifths>
        </key>
        <time>
          <beats>4</beats>
          <beat-type>4</beat-type>
        </time>
        <staves>2</staves>
        <clef number="1">
          <sign>G</sign>
          <line>2</line>
        </clef>
        <clef number="2">
          <sign>F</sign>
          <line>4</line>
        </clef>
      </attributes>
      <direction placement="above">
        <direction-type>
          <metronome halign="left">
            <beat-unit>quarter</beat-unit>
            <per-minute>95</per-minute>
          </metronome>
        </direction-type>
        <sound tempo="95"/>
      </direction>
      <note default-x="310">
        <rest/>
        <duration>64</duration>
        <voice>1</voice>
        <type>whole</type>
        <staff>1</staff>
      </note>
      <backup>
        <duration>64</duration>
      </backup>
      <note default-x="310">
        <rest/>
        <duration>64</duration>
        <voice>1</voice>
        <type>whole</type>
        <staff>2</staff>
      </note>
    </measure>
    <measure number="2" width="480">
      <note default-x="250">
        <rest/>
        <duration>64</duration>
        <voice>1</voice>
        <type>whole</type>
        <staff>1</staff>
      </note>
      <backup>
        <duration>64</duration>
      </backup>
      <note default-x="250">
        <rest/>
        <duration>64</duration>
        <voice>1</voice>
        <type>whole</type>
        <staff>2</staff>
      </note>
    </measure>
    <measure number="3" width="480">
      <note default-x="250">
        <rest/>
        <duration>64</duration>
        <voice>1</voice>
        <type>whole</type>
        <staff>1</staff>
      </note>
      <backup>
        <duration>64</duration>
      </backup>
      <note default-x="250">
        <rest/>
        <duration>64</duration>
        <voice>1</voice>
        <type>whole</type>
        <staff>2</staff>
      </note>
    </measure>
    <measure number="4" width="480">
      <note default-x="250">
        <rest/>
        <duration>64</duration>
        <voice>1</voice>
        <type>whole</type>
        <staff>1</staff>
      </note>
      <backup>
        <duration>64</duration>
      </backup>
      <note default-x="250">
        <rest/>
        <duration>64</duration>
        <voice>1</voice>
        <type>whole</type>
        <staff>2</staff>
      </note>
    </measure>
    <measure number="5" width="540">
      <note default-x="100" dynamics="105" end-dynamics="105">
        <pitch>
          <step>A</step>
          <octave>4</octave>
        </pitch>
        <duration>64</duration>
        <tie type="start"/>
        <instrument id="P1-C9"/>
        <voice>1</voice>
        <type>whole</type>
        <staff>1</staff>
        <notations>
          <tied type="start"/>
        </notations>
      </note>
      <backup>
        <duration>64</duration>
      </backup>
      <note default-x="310">
        <rest/>
        <duration>64</duration>
        <voice>1</voice>
        <type>whole</type>
        <staff>2</staff>
      </note>
    </measure>
    <measure number="6" width="510">
      <note default-x="60" dynamics="105" end-dynamics="105">
        <pitch>
          <step>A</step>
          <octave>4</octave>
        </pitch>
        <duration>64</duration>
        <tie type="stop"/>
        <tie type="start"/>
        <voice>1</voice>
        <type>whole</type>
        <staff>1</staff>
        <notations>
          <tied type="stop"/>
          <tied type="start"/>
        </notations>
      </note>
      <backup>
        <duration>64</duration>
      </backup>
      <note default-x="270">
        <rest/>
        <duration>64</duration>
        <voice>1</voice>
        <type>whole</type>
        <staff>2</staff>
      </note>
    </measure>
    <measure number="7" width="510">
      <note default-x="60" dynamics="105" end-dynamics="105">
        <pitch>
          <step>A</step>
          <octave>4</octave>
        </pitch>
        <duration>48</duration>
        <tie type="stop"/>
        <voice>1</voice>
        <type>half</type>
        <dot/>
        <staff>1</staff>
        <notations>
          <tied type="stop"/>
        </notations>
      </note>
      <note default-x="320" dynamics="105" end-dynamics="105">
        <pitch>
          <step>G</step>
          <octave>5</octave>
        </pitch>
        <duration>16</duration>
        <voice>1</voice>
        <type>quarter</type>
        <stem>down</stem>
        <staff>1</staff>
      </note>
      <backup>
        <duration>64</duration>
      </backup>
      <note default-x="240">
        <rest/>
        <duration>64</duration>
        <voice>1</voice>
        <type>whole</type>
        <staff>2</staff>
      </note>
    </measure>
    <measure number="8" width="400">
      <attributes>
        <time>
          <beats>3</beats>
          <beat-type>4</beat-type>
        </time>
      </attributes>
      <note default-x="110" dynamics="105" end-dynamics="105">
        <pitch>
          <step>D</step>
          <octave>5</octave>
        </pitch>
        <duration>16</duration>
        <voice>1</voice>
        <type>quarter</type>
        <stem>down</stem>
        <staff>1</staff>
      </note>
      <note default-x="200" dynamics="105" end-dynamics="105">
        <pitch>
          <step>C</step>
          <octave>5</octave>
        </pitch>
        <duration>16</duration>
        <voice>1</voice>
        <type>quarter</type>
        <stem>down</stem>
        <staff>1</staff>
      </note>
      <note default-x="290" dynamics="105" end-dynamics="105">
        <pitch>
          <step>G</step>
          <octave>4</octave>
        </pitch>
        <duration>16</duration>
        <voice>1</voice>
        <type>quarter</type>
        <stem>up</stem>
        <staff>1</staff>
      </note>
      <backup>
        <duration>48</duration>
      </backup>
      <note default-x="250">
        <rest/>
        <duration>48</duration>
        <voice>1</voice>
        <type>whole</type>
        <staff>2</staff>
      </note>
    </measure>
    <measure number="9" width="540">
      <attributes>
        <time>
          <beats>4</beats>
          <beat-type>4</beat-type>
        </time>
      </attributes>
      <note default-x="190" dynamics="105" end-dynamics="105">
        <pitch>
          <step>A</step>
          <octave>4</octave>
        </pitch>
        <duration>64</duration>
        <tie type="start"/>
        <voice>1</voice>
        <type>whole</type>
        <staff>1</staff>
        <notations>
          <tied type="start"/>
        </notations>
      </note>
      <backup>
        <duration>64</duration>
      </backup>
      <note default-x="350">
        <rest/>
        <duration>64</duration>
        <voice>1</voice>
        <type>whole</type>
        <staff>2</staff>
      </note>
    </measure>
    <measure number="10" width="480">
      <note default-x="60" dynamics="105" end-dynamics="105">
        <pitch>
          <step>A</step>
          <octave>4</octave>
        </pitch>
        <duration>64</duration>
        <tie type="stop"/>
        <tie type="start"/>
        <voice>1</voice>
        <type>whole</type>
        <staff>1</staff>
        <notations>
          <tied type="stop"/>
          <tied type="start"/>
        </notations>
      </note>
      <backup>
        <duration>64</duration>
      </backup>
      <note default-x="250">
        <rest/>
        <duration>64</duration>
        <voice>1</voice>
        <type>whole</type>
        <staff>2</staff>
      </note>
    </measure>
    <measure number="11" width="480">
      <note default-x="60" dynamics="105" end-dynamics="105">
        <pitch>
          <step>A</step>
          <octave>4</octave>
        </pitch>
        <duration>48</duration>
        <tie type="stop"/>
        <voice>1</voice>
        <type>half</type>
        <dot/>
        <staff>1</staff>
        <notations>
          <tied type="stop"/>
        </notations>
      </note>
      <note default-x="300" dynamics="105" end-dynamics="105">
        <pitch>
          <step>G</step>
          <octave>5</octave>
        </pitch>
        <duration>16</duration>
        <voice>1</voice>
        <type>quarter</type>
        <stem>down</stem>
        <staff>1</staff>
      </note>
      <backup>
        <duration>64</duration>
      </backup>
      <note default-x="220">
        <rest/>
        <duration>64</duration>
        <voice>1</voice>
        <type>whole</type>
        <staff>2</staff>
      </note>
    </measure>
    <measure number="12" width="480">
      <note default-x="100" dynamics="105" end-dynamics="105">
        <pitch>
          <step>D</step>
          <octave>5</octave>
        </pitch>
        <duration>16</duration>
        <voice>1</voice>
        <type>quarter</type>
        <stem>down</stem>
        <staff>1</staff>
      </note>
      <note default-x="200" dynamics="105" end-dynamics="105">
        <pitch>
          <step>C</step>
          <octave>5</octave>
        </pitch>
        <duration>32</duration>
        <voice>1</voice>
        <type>half</type>
        <staff>1</staff>
      </note>
      <note default-x="350" dynamics="105" end-dynamics="105">
        <pitch>
          <step>A</step>
          <octave>4</octave>
        </pitch>
        <duration>16</duration>
        <voice>1</voice>
        <type>quarter</type>
        <stem>up</stem>
        <staff>1</staff>
      </note>
      <backup>
        <duration>64</duration>
      </backup>
      <note default-x="270">
        <rest/>
        <duration>64</duration>
        <voice>1</voice>
        <type>whole</type>
        <staff>2</staff>
      </note>
    </measure>
    <measure number="13" width="480">
      <note default-x="160" dynamics="105" end-dynamics="105">
        <pitch>
          <step>G</step>
          <octave>4</octave>
        </pitch>
        <duration>64</duration>
        <voice>1</voice>
        <type>whole</type>
        <staff>1</staff>
      </note>
      <backup>
        <duration>64</duration>
      </backup>
      <note default-x="310">
        <rest/>
        <duration>64</duration>
        <voice>1</voice>
        <type>whole</type>
        <staff>2</staff>
      </note>
    </measure>
    <measure number="14" width="450">
      <note default-x="120" dynamics="105" end-dynamics="105">
        <pitch>
          <step>G</step>
          <octave>4</octave>
        </pitch>
        <duration>64</duration>
        <tie type="start"/>
        <voice>1</voice>
        <type>whole</type>
        <staff>1</staff>
        <notations>
          <tied type="start"/>
        </notations>
      </note>
      <backup>
        <duration>64</duration>
      </backup>
      <note default-x="270">
        <rest/>
        <duration>64</duration>
        <voice>1</voice>
        <type>whole</type>
        <staff>2</staff>
      </note>
    </measure>
    <measure number="15" width="450">
      <note default-x="50" dynamics="105" end-dynamics="105">
        <pitch>
          <step>G</step>
          <octave>4</octave>
        </pitch>
        <duration>16</duration>
        <tie type="stop"/>
        <voice>1</voice>
        <type>quarter</type>
        <stem>up</stem>
        <staff>1</staff>
        <notations>
          <tied type="stop"/>
        </notations>
      </note>
      <note default-x="190" dynamics="105" end-dynamics="105">
        <pitch>
          <step>C</step>
          <octave>5</octave>
        </pitch>
        <duration>48</duration>
        <tie type="start"/>
        <voice>1</voice>
        <type>half</type>
        <dot/>
        <staff>1</staff>
        <notations>
          <tied type="start"/>
        </notations>
      </note>
      <backup>
        <duration>64</duration>
      </backup>
      <note default-x="270">
        <rest/>
        <duration>64</duration>
        <voice>1</voice>
        <type>whole</type>
        <staff>2</staff>
      </note>
    </measure>
    <measure number="16" width="580">
      <attributes>
        <time>
          <beats>5</beats>
          <beat-type>4</beat-type>
        </time>
      </attributes>
      <note default-x="90" dynamics="105" end-dynamics="105">
        <pitch>
          <step>C</step>
          <octave>5</octave>
        </pitch>
        <duration>16</duration>
        <tie type="stop"/>
        <voice>1</voice>
        <type>quarter</type>
        <stem>down</stem>
        <staff>1</staff>
        <notations>
          <tied type="stop"/>
        </notations>
      </note>
      <note default-x="240" dynamics="105" end-dynamics="105">
        <pitch>
          <step>D</step>
          <octave>5</octave>
        </pitch>
        <duration>64</duration>
        <voice>1</voice>
        <type>whole</type>
        <staff>1</staff>
      </note>
      <backup>
        <duration>80</duration>
      </backup>
      <note default-x="360">
        <rest/>
        <duration>80</duration>
        <voice>1</voice>
        <type>whole</type>
        <staff>2</staff>
      </note>
    </measure>
    <measure number="17" width="540">
      <attributes>
        <time>
          <beats>4</beats>
          <beat-type>4</beat-type>
        </time>
      </attributes>
      <note default-x="190" dynamics="105" end-dynamics="105">
        <pitch>
          <step>F</step>
          <octave>4</octave>
        </pitch>
        <duration>64</duration>
        <tie type="start"/>
        <voice>1</voice>
        <type>whole</type>
        <staff>1</staff>
        <notations>
          <tied type="start"/>
        </notations>
      </note>
      <backup>
        <duration>64</duration>
      </backup>
      <note default-x="190" dynamics="105" end-dynamics="105">
        <pitch>
          <step>F</step>
          <octave>3</octave>
        </pitch>
        <duration>64</duration>
        <tie type="start"/>
        <voice>1</voice>
        <type>whole</type>
        <staff>2</staff>
        <notations>
          <tied type="start"/>
        </notations>
      </note>
    </measure>
    <measure number="18" width="480">
      <note default-x="60" dynamics="105" end-dynamics="105">
        <pitch>
          <step>F</step>
          <octave>4</octave>
        </pitch>
        <duration>64</duration>
        <tie type="stop"/>
        <voice>1</voice>
        <type>whole</type>
        <staff>1</staff>
        <notations>
          <tied type="stop"/>
        </notations>
      </note>
      <backup>
        <duration>64</duration>
      </backup>
      <note default-x="60" dynamics="105" end-dynamics="105">
        <pitch>
          <step>F</step>
          <octave>3</octave>
        </pitch>
        <duration>64</duration>
        <tie type="stop"/>
        <voice>1</voice>
        <type>whole</type>
        <staff>2</staff>
        <notations>
          <tied type="stop"/>
        </notations>
      </note>
    </measure>
    <measure number="19" width="480">
      <note default-x="130" dynamics="105" end-dynamics="105">
        <pitch>
          <step>G</step>
          <octave>4</octave>
        </pitch>
        <duration>64</duration>
        <voice>1</voice>
        <type>whole</type>
        <staff>1</staff>
      </note>
      <backup>
        <duration>64</duration>
      </backup>
      <note default-x="130" dynamics="105" end-dynamics="105">
        <pitch>
          <step>G</step>
          <octave>3</octave>
        </pitch>
        <duration>64</duration>
        <voice>1</voice>
        <type>whole</type>
        <staff>2</staff>
      </note>
    </measure>
    <measure number="20" width="480">
      <note default-x="130" dynamics="105" end-dynamics="105">
        <pitch>
          <step>A</step>
          <octave>4</octave>
        </pitch>
        <duration>64</duration>
        <voice>1</voice>
        <type>whole</type>
        <staff>1</staff>
      </note>
      <backup>
        <duration>64</duration>
      </backup>
      <note default-x="130" dynamics="105" end-dynamics="105">
        <pitch>
          <step>G</step>
          <octave>3</octave>
        </pitch>
        <duration>64</duration>
        <voice>1</voice>
        <type>whole</type>
        <staff>2</staff>
      </note>
    </measure>
    <measure number="21" width="510">
      <note default-x="160" dynamics="105" end-dynamics="105">
        <pitch>
          <step>F</step>
          <octave>4</octave>
        </pitch>
        <duration>64</duration>
        <tie type="start"/>
        <voice>1</voice>
        <type>whole</type>
        <staff>1</staff>
        <notations>
          <tied type="start"/>
        </notations>
      </note>
      <note default-x="160" dynamics="105" end-dynamics="105">
        <chord/>
        <pitch>
          <step>C</step>
          <octave>5</octave>
        </pitch>
        <duration>64</duration>
        <tie type="start"/>
        <voice>1</voice>
        <type>whole</type>
        <staff>1</staff>
        <notations>
          <tied type="start"/>
        </notations>
      </note>
      <backup>
        <duration>64</duration>
      </backup>
      <note default-x="160" dynamics="105" end-dynamics="105">
        <pitch>
          <step>F</step>
          <octave>3</octave>
        </pitch>
        <duration>64</duration>
        <tie type="start"/>
        <voice>1</voice>
        <type>whole</type>
        <staff>2</staff>
        <notations>
          <tied type="start"/>
        </notations>
      </note>
    </measure>
    <measure number="22" width="480">
      <note default-x="60" dynamics="105" end-dynamics="105">
        <pitch>
          <step>F</step>
          <octave>4</octave>
        </pitch>
        <duration>64</duration>
        <tie type="stop"/>
        <voice>1</voice>
        <type>whole</type>
        <staff>1</staff>
        <notations>
          <tied type="stop"/>
        </notations>
      </note>
      <note default-x="60" dynamics="105" end-dynamics="105">
        <chord/>
        <pitch>
          <step>C</step>
          <octave>5</octave>
        </pitch>
        <duration>64</duration>
        <tie type="stop"/>
        <voice>1</voice>
        <type>whole</type>
        <staff>1</staff>
        <notations>
          <tied type="stop"/>
        </notations>
      </note>
      <backup>
        <duration>64</duration>
      </backup>
      <note default-x="60" dynamics="105" end-dynamics="105">
        <pitch>
          <step>F</step>
          <octave>3</octave>
        </pitch>
        <duration>64</duration>
        <tie type="stop"/>
        <voice>1</voice>
        <type>whole</type>
        <staff>2</staff>
        <notations>
          <tied type="stop"/>
        </notations>
      </note>
    </measure>
    <measure number="23" width="480">
      <note default-x="130" dynamics="105" end-dynamics="105">
        <pitch>
          <step>G</step>
          <octave>4</octave>
        </pitch>
        <duration>64</duration>
        <voice>1</voice>
        <type>whole</type>
        <staff>1</staff>
      </note>
      <note default-x="130" dynamics="105" end-dynamics="105">
        <chord/>
        <pitch>
          <step>D</step>
          <octave>5</octave>
        </pitch>
        <duration>64</duration>
        <voice>1</voice>
        <type>whole</type>
        <staff>1</staff>
      </note>
      <backup>
        <duration>64</duration>
      </backup>
      <note default-x="130" dynamics="105" end-dynamics="105">
        <pitch>
          <step>G</step>
          <octave>3</octave>
        </pitch>
        <duration>64</duration>
        <voice>1</voice>
        <type>whole</type>
        <staff>2</staff>
      </note>
    </measure>
    <measure number="24" width="480">
      <note default-x="110" dynamics="105" end-dynamics="105">
        <pitch>
          <step>A</step>
          <octave>4</octave>
        </pitch>
        <duration>32</duration>
        <voice>1</voice>
        <type>half</type>
        <staff>1</staff>
      </note>
      <note default-x="110" dynamics="105" end-dynamics="105">
        <chord/>
        <pitch>
          <step>E</step>
          <octave>5</octave>
        </pitch>
        <duration>32</duration>
        <voice>1</voice>
        <type>half</type>
        <staff>1</staff>
      </note>
      <note default-x="360">
        <rest/>
        <duration>32</duration>
        <voice>1</voice>
        <type>half</type>
        <staff>1</staff>
      </note>
      <backup>
        <duration>64</duration>
      </backup>
      <note default-x="110" dynamics="105" end-dynamics="105">
        <pitch>
          <step>A</step>
          <octave>3</octave>
        </pitch>
        <duration>32</duration>
        <voice>1</voice>
        <type>half</type>
        <staff>2</staff>
      </note>
      <note default-x="360">
        <rest/>
        <duration>32</duration>
        <voice>1</voice>
        <type>half</type>
        <staff>2</staff>
      </note>
    </measure>
    <measure number="25" width="510">
      <note default-x="160" dynamics="105" end-dynamics="105">
        <pitch>
          <step>A</step>
          <octave>4</octave>
        </pitch>
        <duration>64</duration>
        <tie type="start"/>
        <voice>1</voice>
        <type>whole</type>
        <staff>1</staff>
        <notations>
          <tied type="start"/>
        </notations>
      </note>
      <backup>
        <duration>64</duration>
      </backup>
      <note default-x="320">
        <rest/>
        <duration>64</duration>
        <voice>1</voice>
        <type>whole</type>
        <staff>2</staff>
      </note>
    </measure>
    <measure number="26" width="480">
      <note default-x="60" dynamics="105" end-dynamics="105">
        <pitch>
          <step>A</step>
          <octave>4</octave>
        </pitch>
        <duration>64</duration>
        <tie type="stop"/>
        <tie type="start"/>
        <voice>1</voice>
        <type>whole</type>
        <staff>1</staff>
        <notations>
          <tied type="stop"/>
          <tied type="start"/>
        </notations>
      </note>
      <backup>
        <duration>64</duration>
      </backup>
      <note default-x="250">
        <rest/>
        <duration>64</duration>
        <voice>1</voice>
        <type>whole</type>
        <staff>2</staff>
      </note>
    </measure>
    <measure number="27" width="480">
      <note default-x="60" dynamics="105" end-dynamics="105">
        <pitch>
          <step>A</step>
          <octave>4</octave>
        </pitch>
        <duration>48</duration>
        <tie type="stop"/>
        <voice>1</voice>
        <type>half</type>
        <dot/>
        <staff>1</staff>
        <notations>
          <tied type="stop"/>
        </notations>
      </note>
      <note default-x="310" dynamics="105" end-dynamics="105">
        <pitch>
          <step>G</step>
          <octave>5</octave>
        </pitch>
        <duration>16</duration>
        <voice>1</voice>
        <type>quarter</type>
        <stem>down</stem>
        <staff>1</staff>
      </note>
      <backup>
        <duration>64</duration>
      </backup>
      <note default-x="220">
        <rest/>
        <duration>64</duration>
        <voice>1</voice>
        <type>whole</type>
        <staff>2</staff>
      </note>
    </measure>
    <measure number="28" width="480">
      <note default-x="100" dynamics="105" end-dynamics="105">
        <pitch>
          <step>D</step>
          <octave>5</octave>
        </pitch>
        <duration>16</duration>
        <voice>1</voice>
        <type>quarter</type>
        <stem>down</stem>
        <staff>1</staff>
      </note>
      <note default-x="200" dynamics="105" end-dynamics="105">
        <pitch>
          <step>C</step>
          <octave>5</octave>
        </pitch>
        <duration>32</duration>
        <voice>1</voice>
        <type>half</type>
        <staff>1</staff>
      </note>
      <note default-x="350" dynamics="105" end-dynamics="105">
        <pitch>
          <step>G</step>
          <octave>4</octave>
        </pitch>
        <duration>16</duration>
        <voice>1</voice>
        <type>quarter</type>
        <stem>up</stem>
        <staff>1</staff>
      </note>
      <backup>
        <duration>64</duration>
      </backup>
      <note default-x="270">
        <rest/>
        <duration>64</duration>
        <voice>1</voice>
        <type>whole</type>
        <staff>2</staff>
      </note>
    </measure>
    <measure number="29" width="510">
      <note default-x="160" dynamics="105" end-dynamics="105">
        <pitch>
          <step>A</step>
          <octave>4</octave>
        </pitch>
        <duration>64</duration>
        <tie type="start"/>
        <voice>1</voice>
        <type>whole</type>
        <staff>1</staff>
        <notations>
          <tied type="start"/>
        </notations>
      </note>
      <backup>
        <duration>64</duration>
      </backup>
      <note default-x="320">
        <rest/>
        <duration>64</duration>
        <voice>1</voice>
        <type>whole</type>
        <staff>2</staff>
      </note>
    </measure>
    <measure number="30" width="480">
      <note default-x="60" dynamics="105" end-dynamics="105">
        <pitch>
          <step>A</step>
          <octave>4</octave>
        </pitch>
        <duration>64</duration>
        <tie type="stop"/>
        <tie type="start"/>
        <voice>1</voice>
        <type>whole</type>
        <staff>1</staff>
        <notations>
          <tied type="stop"/>
          <tied type="start"/>
        </notations>
      </note>
      <backup>
        <duration>64</duration>
      </backup>
      <note default-x="250">
        <rest/>
        <duration>64</duration>
        <voice>1</voice>
        <type>whole</type>
        <staff>2</staff>
      </note>
    </measure>
    <measure number="31" width="480">
      <note default-x="60" dynamics="105" end-dynamics="105">
        <pitch>
          <step>A</step>
          <octave>4</octave>
        </pitch>
        <duration>16</duration>
        <tie type="stop"/>
        <voice>1</voice>
        <type>quarter</type>
        <stem>up</stem>
        <staff>1</staff>
        <notations>
          <tied type="stop"/>
        </notations>
      </note>
      <note default-x="200" dynamics="105" end-dynamics="105">
        <pitch>
          <step>C</step>
          <octave>5</octave>
        </pitch>
        <duration>48</duration>
        <voice>1</voice>
        <type>half</type>
        <dot/>
        <staff>1</staff>
      </note>
      <backup>
        <duration>64</duration>
      </backup>
      <note default-x="280">
        <rest/>
        <duration>64</duration>
        <voice>1</voice>
        <type>whole</type>
        <staff>2</staff>
      </note>
    </measure>
    <measure number="32" width="480">
      <note default-x="110" dynamics="105" end-dynamics="105">
        <pitch>
          <step>B</step>
          <octave>4</octave>
        </pitch>
        <duration>48</duration>
        <voice>1</voice>
        <type>half</type>
        <dot/>
        <staff>1</staff>
      </note>
      <note default-x="320">
        <rest/>
        <duration>16</duration>
        <voice>1</voice>
        <type>quarter</type>
        <staff>1</staff>
      </note>
      <backup>
        <duration>64</duration>
      </backup>
      <note default-x="250">
        <rest/>
        <duration>64</duration>
        <voice>1</voice>
        <type>whole</type>
        <staff>2</staff>
      </note>
    </measure>
    <measure number="33" width="510">
      <note default-x="90">
        <rest/>
        <duration>8</duration>
        <voice>1</voice>
        <type>eighth</type>
        <staff>1</staff>
      </note>
      <note default-x="150" dynamics="105" end-dynamics="105">
        <pitch>
          <step>A</step>
          <octave>4</octave>
        </pitch>
        <duration>8</duration>
        <tie type="start"/>
        <voice>1</voice>
        <type>eighth</type>
        <stem>up</stem>
        <staff>1</staff>
        <notations>
          <tied type="start"/>
        </notations>
      </note>
      <note default-x="200" dynamics="105" end-dynamics="105">
        <pitch>
          <step>A</step>
          <octave>4</octave>
        </pitch>
        <duration>8</duration>
        <tie type="stop"/>
        <voice>1</voice>
        <type>eighth</type>
        <stem>down</stem>
        <staff>1</staff>
        <beam number="1">begin</beam>
        <notations>
          <tied type="stop"/>
        </notations>
      </note>
      <note default-x="250" dynamics="105" end-dynamics="105">
        <pitch>
          <step>C</step>
          <octave>5</octave>
        </pitch>
        <duration>8</duration>
        <tie type="start"/>
        <voice>1</voice>
        <type>eighth</type>
        <stem>down</stem>
        <staff>1</staff>
        <beam number="1">end</beam>
        <notations>
          <tied type="start"/>
        </notations>
      </note>
      <note default-x="300" dynamics="105" end-dynamics="105">
        <pitch>
          <step>C</step>
          <octave>5</octave>
        </pitch>
        <duration>8</duration>
        <tie type="stop"/>
        <voice>1</voice>
        <type>eighth</type>
        <stem>down</stem>
        <staff>1</staff>
        <notations>
          <tied type="stop"/>
        </notations>
      </note>
      <note default-x="350" dynamics="105" end-dynamics="105">
        <pitch>
          <step>B</step>
          <octave>4</octave>
        </pitch>
        <duration>16</duration>
        <voice>1</voice>
        <type>quarter</type>
        <stem>down</stem>
        <staff>1</staff>
      </note>
      <note default-x="430" dynamics="105" end-dynamics="105">
        <pitch>
          <step>A</step>
          <octave>4</octave>
        </pitch>
        <duration>8</duration>
        <tie type="start"/>
        <voice>1</voice>
        <type>eighth</type>
        <stem>up</stem>
        <staff>1</staff>
        <notations>
          <tied type="start"/>
        </notations>
      </note>
      <backup>
        <duration>64</duration>
      </backup>
      <note default-x="300">
        <rest/>
        <duration>64</duration>
        <voice>1</voice>
        <type>whole</type>
        <staff>2</staff>
      </note>
    </measure>
    <measure number="34" width="480">
      <note default-x="60" dynamics="105" end-dynamics="105">
        <pitch>
          <step>A</step>
          <octave>4</octave>
        </pitch>
        <duration>8</duration>
        <tie type="stop"/>
        <voice>1</voice>
        <type>eighth</type>
        <stem>up</stem>
        <staff>1</staff>
        <notations>
          <tied type="stop"/>
        </notations>
      </note>
      <note default-x="120" dynamics="105" end-dynamics="105">
        <pitch>
          <step>D</step>
          <octave>5</octave>
        </pitch>
        <duration>16</duration>
        <voice>1</voice>
        <type>quarter</type>
        <stem>down</stem>
        <staff>1</staff>
      </note>
      <note default-x="200" dynamics="105" end-dynamics="105">
        <pitch>
          <step>C</step>
          <octave>5</octave>
        </pitch>
        <duration>8</duration>
        <tie type="start"/>
        <voice>1</voice>
        <type>eighth</type>
        <stem>down</stem>
        <staff>1</staff>
        <notations>
          <tied type="start"/>
        </notations>
      </note>
      <note default-x="250" dynamics="105" end-dynamics="105">
        <pitch>
          <step>C</step>
          <octave>5</octave>
        </pitch>
        <duration>8</duration>
        <tie type="stop"/>
        <voice>1</voice>
        <type>eighth</type>
        <stem>down</stem>
        <staff>1</staff>
        <notations>
          <tied type="stop"/>
        </notations>
      </note>
      <note default-x="310" dynamics="105" end-dynamics="105">
        <pitch>
          <step>B</step>
          <octave>4</octave>
        </pitch>
        <duration>16</duration>
        <voice>1</voice>
        <type>quarter</type>
        <stem>down</stem>
        <staff>1</staff>
      </note>
      <note default-x="390" dynamics="105" end-dynamics="105">
        <pitch>
          <step>A</step>
          <octave>4</octave>
        </pitch>
        <duration>8</duration>
        <tie type="start"/>
        <voice>1</voice>
        <type>eighth</type>
        <stem>up</stem>
        <staff>1</staff>
        <notations>
          <tied type="start"/>
        </notations>
      </note>
      <backup>
        <duration>64</duration>
      </backup>
      <note default-x="250">
        <rest/>
        <duration>64</duration>
        <voice>1</voice>
        <type>whole</type>
        <staff>2</staff>
      </note>
    </measure>
    <measure number="35" width="480">
      <note default-x="60" dynamics="105" end-dynamics="105">
        <pitch>
          <step>A</step>
          <octave>4</octave>
        </pitch>
        <duration>64</duration>
        <tie type="stop"/>
        <voice>1</voice>
        <type>whole</type>
        <staff>1</staff>
        <notations>
          <tied type="stop"/>
        </notations>
      </note>
      <backup>
        <duration>64</duration>
      </backup>
      <note default-x="250">
        <rest/>
        <duration>64</duration>
        <voice>1</voice>
        <type>whole</type>
        <staff>2</staff>
      </note>
    </measure>
    <measure number="36" width="480">
      <note default-x="110" dynamics="105" end-dynamics="105">
        <pitch>
          <step>E</step>
          <octave>5</octave>
        </pitch>
        <duration>32</duration>
        <voice>1</voice>
        <type>half</type>
        <staff>1</staff>
      </note>
      <note default-x="280" dynamics="105" end-dynamics="105">
        <pitch>
          <step>C</step>
          <octave>5</octave>
        </pitch>
        <duration>32</duration>
        <voice>1</voice>
        <type>half</type>
        <staff>1</staff>
      </note>
      <backup>
        <duration>64</duration>
      </backup>
      <note default-x="280">
        <rest/>
        <duration>64</duration>
        <voice>1</voice>
        <type>whole</type>
        <staff>2</staff>
      </note>
    </measure>
    <measure number="37" width="510">
      <note default-x="160" dynamics="105" end-dynamics="105">
        <pitch>
          <step>E</step>
          <octave>4</octave>
        </pitch>
        <duration>64</duration>
        <tie type="start"/>
        <voice>1</voice>
        <type>whole</type>
        <staff>1</staff>
        <notations>
          <tied type="start"/>
        </notations>
      </note>
      <note default-x="160" dynamics="105" end-dynamics="105">
        <chord/>
        <pitch>
          <step>E</step>
          <octave>5</octave>
        </pitch>
        <duration>64</duration>
        <tie type="start"/>
        <voice>1</voice>
        <type>whole</type>
        <staff>1</staff>
        <notations>
          <tied type="start"/>
        </notations>
      </note>
      <backup>
        <duration>64</duration>
      </backup>
      <note default-x="160" dynamics="105" end-dynamics="105">
        <pitch>
          <step>E</step>
          <octave>3</octave>
        </pitch>
        <duration>64</duration>
        <tie type="start"/>
        <voice>1</voice>
        <type>whole</type>
        <staff>2</staff>
        <notations>
          <tied type="start"/>
        </notations>
      </note>
    </measure>
    <measure number="38" width="480">
      <note default-x="60" dynamics="105" end-dynamics="105">
        <pitch>
          <step>E</step>
          <octave>4</octave>
        </pitch>
        <duration>64</duration>
        <tie type="stop"/>
        <voice>1</voice>
        <type>whole</type>
        <staff>1</staff>
        <notations>
          <tied type="stop"/>
        </notations>
      </note>
      <note default-x="60" dynamics="105" end-dynamics="105">
        <chord/>
        <pitch>
          <step>E</step>
          <octave>5</octave>
        </pitch>
        <duration>64</duration>
        <tie type="stop"/>
        <voice>1</voice>
        <type>whole</type>
        <staff>1</staff>
        <notations>
          <tied type="stop"/>
        </notations>
      </note>
      <backup>
        <duration>64</duration>
      </backup>
      <note default-x="60" dynamics="105" end-dynamics="105">
        <pitch>
          <step>E</step>
          <octave>3</octave>
        </pitch>
        <duration>64</duration>
        <tie type="stop"/>
        <voice>1</voice>
        <type>whole</type>
        <staff>2</staff>
        <notations>
          <tied type="stop"/>
        </notations>
      </note>
    </measure>
    <measure number="39" width="480">
      <note default-x="130" dynamics="105" end-dynamics="105">
        <pitch>
          <step>D</step>
          <octave>4</octave>
        </pitch>
        <duration>64</duration>
        <tie type="start"/>
        <voice>1</voice>
        <type>whole</type>
        <staff>1</staff>
        <notations>
          <tied type="start"/>
        </notations>
      </note>
      <note default-x="130" dynamics="105" end-dynamics="105">
        <chord/>
        <pitch>
          <step>D</step>
          <octave>5</octave>
        </pitch>
        <duration>64</duration>
        <tie type="start"/>
        <voice>1</voice>
        <type>whole</type>
        <staff>1</staff>
        <notations>
          <tied type="start"/>
        </notations>
      </note>
      <backup>
        <duration>64</duration>
      </backup>
      <note default-x="130" dynamics="105" end-dynamics="105">
        <pitch>
          <step>D</step>
          <octave>3</octave>
        </pitch>
        <duration>64</duration>
        <tie type="start"/>
        <voice>1</voice>
        <type>whole</type>
        <staff>2</staff>
        <notations>
          <tied type="start"/>
        </notations>
      </note>
    </measure>
    <measure number="40" width="480">
      <note default-x="60" dynamics="105" end-dynamics="105">
        <pitch>
          <step>D</step>
          <octave>4</octave>
        </pitch>
        <duration>64</duration>
        <tie type="stop"/>
        <voice>1</voice>
        <type>whole</type>
        <staff>1</staff>
        <notations>
          <tied type="stop"/>
        </notations>
      </note>
      <note default-x="60" dynamics="105" end-dynamics="105">
        <chord/>
        <pitch>
          <step>D</step>
          <octave>5</octave>
        </pitch>
        <duration>64</duration>
        <tie type="stop"/>
        <voice>1</voice>
        <type>whole</type>
        <staff>1</staff>
        <notations>
          <tied type="stop"/>
        </notations>
      </note>
      <backup>
        <duration>64</duration>
      </backup>
      <note default-x="60" dynamics="105" end-dynamics="105">
        <pitch>
          <step>D</step>
          <octave>3</octave>
        </pitch>
        <duration>64</duration>
        <tie type="stop"/>
        <voice>1</voice>
        <type>whole</type>
        <staff>2</staff>
        <notations>
          <tied type="stop"/>
        </notations>
      </note>
    </measure>
    <measure number="41" width="510">
      <note default-x="160" dynamics="105" end-dynamics="105">
        <pitch>
          <step>E</step>
          <octave>4</octave>
        </pitch>
        <duration>64</duration>
        <tie type="start"/>
        <voice>1</voice>
        <type>whole</type>
        <staff>1</staff>
        <notations>
          <tied type="start"/>
        </notations>
      </note>
      <note default-x="160" dynamics="105" end-dynamics="105">
        <chord/>
        <pitch>
          <step>E</step>
          <octave>5</octave>
        </pitch>
        <duration>64</duration>
        <tie type="start"/>
        <voice>1</voice>
        <type>whole</type>
        <staff>1</staff>
        <notations>
          <tied type="start"/>
        </notations>
      </note>
      <backup>
        <duration>64</duration>
      </backup>
      <note default-x="160" dynamics="105" end-dynamics="105">
        <pitch>
          <step>E</step>
          <octave>3</octave>
        </pitch>
        <duration>64</duration>
        <tie type="start"/>
        <voice>1</voice>
        <type>whole</type>
        <staff>2</staff>
        <notations>
          <tied type="start"/>
        </notations>
      </note>
    </measure>
    <measure number="42" width="480">
      <note default-x="60" dynamics="105" end-dynamics="105">
        <pitch>
          <step>E</step>
          <octave>4</octave>
        </pitch>
        <duration>64</duration>
        <tie type="stop"/>
        <voice>1</voice>
        <type>whole</type>
        <staff>1</staff>
        <notations>
          <tied type="stop"/>
        </notations>
      </note>
      <note default-x="60" dynamics="105" end-dynamics="105">
        <chord/>
        <pitch>
          <step>E</step>
          <octave>5</octave>
        </pitch>
        <duration>64</duration>
        <tie type="stop"/>
        <voice>1</voice>
        <type>whole</type>
        <staff>1</staff>
        <notations>
          <tied type="stop"/>
        </notations>
      </note>
      <backup>
        <duration>64</duration>
      </backup>
      <note default-x="60" dynamics="105" end-dynamics="105">
        <pitch>
          <step>E</step>
          <octave>3</octave>
        </pitch>
        <duration>64</duration>
        <tie type="stop"/>
        <voice>1</voice>
        <type>whole</type>
        <staff>2</staff>
        <notations>
          <tied type="stop"/>
        </notations>
      </note>
    </measure>
    <measure number="43" width="480">
      <note default-x="130" dynamics="105" end-dynamics="105">
        <pitch>
          <step>D</step>
          <octave>4</octave>
        </pitch>
        <duration>64</duration>
        <voice>1</voice>
        <type>whole</type>
        <staff>1</staff>
      </note>
      <note default-x="130" dynamics="105" end-dynamics="105">
        <chord/>
        <pitch>
          <step>D</step>
          <octave>5</octave>
        </pitch>
        <duration>64</duration>
        <voice>1</voice>
        <type>whole</type>
        <staff>1</staff>
      </note>
      <backup>
        <duration>64</duration>
      </backup>
      <note default-x="130" dynamics="105" end-dynamics="105">
        <pitch>
          <step>D</step>
          <octave>3</octave>
        </pitch>
        <duration>64</duration>
        <voice>1</voice>
        <type>whole</type>
        <staff>2</staff>
      </note>
    </measure>
    <measure number="44" width="480">
      <note default-x="250">
        <rest/>
        <duration>64</duration>
        <voice>1</voice>
        <type>whole</type>
        <staff>1</staff>
      </note>
      <backup>
        <duration>64</duration>
      </backup>
      <note default-x="250">
        <rest/>
        <duration>64</duration>
        <voice>1</voice>
        <type>whole</type>
        <staff>2</staff>
      </note>
    </measure>
  </part>
</score-partwise>
